<svg width="17" height="16" viewBox="0 0 17 16" fill="none" xmlns="http://www.w3.org/2000/svg">
<path d="M14.1031 6.35378L9.10305 11.3538C9.05662 11.4003 9.00147 11.4372 8.94077 11.4623C8.88007 11.4875 8.81501 11.5004 8.7493 11.5004C8.68359 11.5004 8.61853 11.4875 8.55783 11.4623C8.49713 11.4372 8.44199 11.4003 8.39555 11.3538L3.39555 6.35378C3.30173 6.25996 3.24902 6.13272 3.24902 6.00003C3.24902 5.86735 3.30173 5.7401 3.39555 5.64628C3.48937 5.55246 3.61662 5.49976 3.7493 5.49976C3.88198 5.49976 4.00923 5.55246 4.10305 5.64628L8.7493 10.2932L13.3956 5.64628C13.442 5.59983 13.4972 5.56298 13.5579 5.53784C13.6186 5.5127 13.6836 5.49976 13.7493 5.49976C13.815 5.49976 13.8801 5.5127 13.9408 5.53784C14.0014 5.56298 14.0566 5.59983 14.1031 5.64628C14.1495 5.69274 14.1864 5.74789 14.2115 5.80859C14.2366 5.86928 14.2496 5.93434 14.2496 6.00003C14.2496 6.06573 14.2366 6.13079 14.2115 6.19148C14.1864 6.25218 14.1495 6.30733 14.1031 6.35378Z" fill="#78716C"/>
</svg>
