<svg width="32" height="32" viewBox="0 0 32 32" fill="none" xmlns="http://www.w3.org/2000/svg">
<path d="M11.2927 6.70749C11.1998 6.61458 11.1261 6.50428 11.0758 6.38289C11.0255 6.2615 10.9996 6.13139 10.9996 5.99999C10.9996 5.8686 11.0255 5.73849 11.0758 5.6171C11.1261 5.4957 11.1998 5.3854 11.2927 5.29249C11.3856 5.19958 11.4959 5.12588 11.6173 5.0756C11.7387 5.02532 11.8688 4.99944 12.0002 4.99944C12.1316 4.99944 12.2617 5.02532 12.3831 5.0756C12.5045 5.12588 12.6148 5.19958 12.7077 5.29249L22.7077 15.2925C22.8007 15.3854 22.8744 15.4957 22.9247 15.6171C22.9751 15.7385 23.001 15.8686 23.001 16C23.001 16.1314 22.9751 16.2615 22.9247 16.3829C22.8744 16.5043 22.8007 16.6146 22.7077 16.7075L12.7077 26.7075C12.5201 26.8951 12.2656 27.0005 12.0002 27.0005C11.7348 27.0005 11.4803 26.8951 11.2927 26.7075C11.105 26.5199 10.9996 26.2654 10.9996 26C10.9996 25.7346 11.105 25.4801 11.2927 25.2925L20.5864 16L11.2927 6.70749Z" fill="#EEF2FF"/>
</svg>
