<svg width="19" height="18" viewBox="0 0 19 18" fill="none" xmlns="http://www.w3.org/2000/svg">
<path d="M9.5 0.46875C7.81268 0.46875 6.16325 0.969099 4.7603 1.90652C3.35734 2.84395 2.26387 4.17635 1.61816 5.73523C0.972446 7.29411 0.803499 9.00946 1.13268 10.6644C1.46186 12.3193 2.27438 13.8394 3.4675 15.0325C4.66062 16.2256 6.18074 17.0381 7.83564 17.3673C9.49054 17.6965 11.2059 17.5276 12.7648 16.8818C14.3237 16.2361 15.6561 15.1427 16.5935 13.7397C17.5309 12.3368 18.0313 10.6873 18.0313 9C18.0289 6.7381 17.1293 4.56954 15.5299 2.97013C13.9305 1.37073 11.7619 0.471139 9.5 0.46875ZM12.5893 11.1607C12.6503 11.2217 12.6986 11.2941 12.7316 11.3737C12.7646 11.4534 12.7816 11.5388 12.7816 11.625C12.7816 11.7112 12.7646 11.7966 12.7316 11.8763C12.6986 11.9559 12.6503 12.0283 12.5893 12.0893C12.5283 12.1503 12.4559 12.1986 12.3763 12.2316C12.2966 12.2646 12.2112 12.2816 12.125 12.2816C12.0388 12.2816 11.9534 12.2646 11.8737 12.2316C11.7941 12.1986 11.7217 12.1503 11.6607 12.0893L9.5 9.92777L7.3393 12.0893C7.27833 12.1503 7.20594 12.1986 7.12628 12.2316C7.04662 12.2646 6.96123 12.2816 6.875 12.2816C6.78878 12.2816 6.70339 12.2646 6.62373 12.2316C6.54406 12.1986 6.47168 12.1503 6.41071 12.0893C6.34973 12.0283 6.30137 11.9559 6.26837 11.8763C6.23537 11.7966 6.21839 11.7112 6.21839 11.625C6.21839 11.5388 6.23537 11.4534 6.26837 11.3737C6.30137 11.2941 6.34973 11.2217 6.41071 11.1607L8.57223 9L6.41071 6.8393C6.28757 6.71616 6.21839 6.54915 6.21839 6.375C6.21839 6.20085 6.28757 6.03384 6.41071 5.9107C6.53385 5.78756 6.70086 5.71839 6.875 5.71839C7.04915 5.71839 7.21616 5.78756 7.3393 5.9107L9.5 8.07223L11.6607 5.9107C11.7217 5.84973 11.7941 5.80136 11.8737 5.76837C11.9534 5.73537 12.0388 5.71839 12.125 5.71839C12.2112 5.71839 12.2966 5.73537 12.3763 5.76837C12.4559 5.80136 12.5283 5.84973 12.5893 5.9107C12.6503 5.97168 12.6986 6.04406 12.7316 6.12372C12.7646 6.20339 12.7816 6.28877 12.7816 6.375C12.7816 6.46123 12.7646 6.54661 12.7316 6.62628C12.6986 6.70594 12.6503 6.77832 12.5893 6.8393L10.4278 9L12.5893 11.1607Z" fill="#EF4444"/>
</svg>
