<svg width="19" height="18" viewBox="0 0 19 18" fill="none" xmlns="http://www.w3.org/2000/svg">
<path d="M9.5 0.46875C7.81268 0.46875 6.16325 0.969099 4.7603 1.90652C3.35734 2.84395 2.26387 4.17635 1.61816 5.73523C0.972446 7.29411 0.803499 9.00946 1.13268 10.6644C1.46186 12.3193 2.27438 13.8394 3.4675 15.0325C4.66062 16.2256 6.18074 17.0381 7.83564 17.3673C9.49054 17.6965 11.2059 17.5276 12.7648 16.8818C14.3237 16.2361 15.6561 15.1427 16.5935 13.7397C17.5309 12.3368 18.0313 10.6873 18.0313 9C18.0289 6.7381 17.1293 4.56954 15.5299 2.97013C13.9305 1.37073 11.7619 0.471139 9.5 0.46875ZM9.17188 4.40625C9.36657 4.40625 9.55689 4.46398 9.71877 4.57215C9.88065 4.68031 10.0068 4.83405 10.0813 5.01392C10.1558 5.19379 10.1753 5.39172 10.1373 5.58267C10.0994 5.77362 10.0056 5.94902 9.86794 6.08668C9.73027 6.22435 9.55487 6.3181 9.36392 6.35609C9.17297 6.39407 8.97505 6.37457 8.79517 6.30007C8.6153 6.22556 8.46157 6.09939 8.3534 5.93751C8.24524 5.77563 8.1875 5.58532 8.1875 5.39062C8.1875 5.12955 8.29121 4.87917 8.47582 4.69457C8.66043 4.50996 8.91081 4.40625 9.17188 4.40625ZM10.1563 13.5938C9.80816 13.5938 9.47432 13.4555 9.22818 13.2093C8.98203 12.9632 8.84375 12.6293 8.84375 12.2812V9C8.66971 9 8.50279 8.93086 8.37971 8.80779C8.25664 8.68472 8.1875 8.5178 8.1875 8.34375C8.1875 8.1697 8.25664 8.00278 8.37971 7.87971C8.50279 7.75664 8.66971 7.6875 8.84375 7.6875C9.19185 7.6875 9.52569 7.82578 9.77183 8.07192C10.018 8.31806 10.1563 8.6519 10.1563 9V12.2812C10.3303 12.2812 10.4972 12.3504 10.6203 12.4735C10.7434 12.5965 10.8125 12.7635 10.8125 12.9375C10.8125 13.1115 10.7434 13.2785 10.6203 13.4015C10.4972 13.5246 10.3303 13.5938 10.1563 13.5938Z" fill="#6366F1"/>
</svg>
