<svg width="329" height="320" viewBox="0 0 329 320" fill="none" xmlns="http://www.w3.org/2000/svg">
<g clip-path="url(#clip0_4171_6153)">
<path d="M208.477 71.9666H120.095C118.081 71.9691 116.151 72.7698 114.726 74.1932C113.302 75.6166 112.501 77.5465 112.499 79.5595V275.885L111.486 276.194L89.8043 282.83C88.7767 283.143 87.6669 283.036 86.7183 282.532C85.7697 282.028 85.06 281.169 84.7449 280.142L20.2525 69.5926C19.9386 68.5656 20.0456 67.456 20.5499 66.5078C21.0542 65.5596 21.9145 64.8503 22.9418 64.5358L56.3529 54.3107L153.213 24.6784L186.624 14.4533C187.132 14.2969 187.666 14.2423 188.196 14.2925C188.726 14.3427 189.24 14.4968 189.71 14.746C190.18 14.9952 190.596 15.3346 190.935 15.7447C191.273 16.1548 191.528 16.6277 191.683 17.1361L208.168 70.9543L208.477 71.9666Z" fill="#F2F2F2"/>
<path d="M227.763 70.9544L207.895 6.09119C207.564 5.01045 207.024 4.0054 206.305 3.13347C205.585 2.26155 204.701 1.53984 203.703 1.00959C202.704 0.479331 201.611 0.150917 200.485 0.0431249C199.36 -0.0646676 198.224 0.0502732 197.143 0.381367L150.169 14.7521L53.3143 44.3895L6.34038 58.7653C4.15822 59.435 2.33107 60.9427 1.25998 62.9575C0.188893 64.9723 -0.0386207 67.3295 0.627387 69.5117L68.5332 291.187C69.0742 292.949 70.1659 294.491 71.648 295.587C73.1301 296.683 74.9247 297.275 76.7683 297.277C77.6216 297.277 78.4701 297.149 79.2853 296.897L111.486 287.047L112.499 286.733V285.675L111.486 285.984L78.9866 295.93C77.0604 296.517 74.98 296.317 73.2017 295.372C71.4234 294.428 70.0924 292.818 69.5006 290.894L1.59999 69.2131C1.3068 68.2599 1.20461 67.2582 1.29928 66.2655C1.39395 65.2728 1.68361 64.3085 2.15169 63.4278C2.61977 62.5471 3.25707 61.7674 4.02709 61.1332C4.7971 60.4991 5.68471 60.0229 6.63909 59.7321L53.613 45.3563L150.468 15.724L197.442 1.3482C198.166 1.1274 198.918 1.01482 199.675 1.01411C201.299 1.01776 202.88 1.54114 204.185 2.50759C205.49 3.47404 206.451 4.83278 206.928 6.38479L226.705 70.9544L227.019 71.9668H228.072L227.763 70.9544Z" fill="#3F3D56"/>
<path d="M62.3823 64.7019C61.4061 64.7012 60.4559 64.3879 59.671 63.8079C58.8861 63.2279 58.3078 62.4117 58.021 61.4791L51.4977 40.1828C51.3224 39.6108 51.2615 39.0098 51.3186 38.4143C51.3758 37.8187 51.5497 37.2402 51.8305 36.7119C52.1114 36.1835 52.4936 35.7156 52.9554 35.335C53.4171 34.9543 53.9494 34.6682 54.5218 34.4931L143.627 7.22785C144.783 6.87531 146.032 6.99554 147.099 7.56217C148.167 8.1288 148.965 9.09552 149.32 10.2502L155.844 31.5467C156.196 32.702 156.076 33.9499 155.509 35.0166C154.942 36.0833 153.975 36.8817 152.82 37.2367L63.714 64.502C63.2825 64.6343 62.8336 64.7017 62.3823 64.7019Z" fill="#E0E7FF"/>
<path d="M96.5539 22.7554C102.148 22.7554 106.683 18.2228 106.683 12.6316C106.683 7.04039 102.148 2.50781 96.5539 2.50781C90.9598 2.50781 86.4248 7.04039 86.4248 12.6316C86.4248 18.2228 90.9598 22.7554 96.5539 22.7554Z" fill="#E0E7FF"/>
<path d="M96.5542 19.0421C100.097 19.0421 102.968 16.1719 102.968 12.6314C102.968 9.09087 100.097 6.2207 96.5542 6.2207C93.0118 6.2207 90.1401 9.09087 90.1401 12.6314C90.1401 16.1719 93.0118 19.0421 96.5542 19.0421Z" fill="white"/>
<path d="M305.459 294.69H134.277C133.135 294.689 132.041 294.235 131.234 293.429C130.427 292.622 129.973 291.528 129.972 290.388V85.3807C129.973 84.24 130.427 83.1464 131.234 82.3397C132.041 81.5331 133.135 81.0794 134.277 81.0781H305.459C306.6 81.0794 307.695 81.5332 308.502 82.3398C309.309 83.1464 309.763 84.24 309.764 85.3807V290.388C309.763 291.528 309.309 292.622 308.502 293.429C307.695 294.235 306.6 294.689 305.459 294.69Z" fill="#E6E6E6"/>
<path d="M226.705 70.9541H120.096C117.813 70.9573 115.625 71.865 114.011 73.4781C112.397 75.0912 111.489 77.2781 111.486 79.5593V285.984L112.499 285.675V79.5593C112.501 77.5463 113.302 75.6165 114.727 74.1931C116.151 72.7697 118.082 71.9689 120.096 71.9665H227.019L226.705 70.9541ZM319.64 70.9541H120.096C117.813 70.9573 115.625 71.865 114.011 73.4781C112.397 75.0912 111.489 77.2781 111.486 79.5593V311.394C111.489 313.676 112.397 315.862 114.011 317.476C115.625 319.089 117.813 319.996 120.096 320H319.64C321.922 319.996 324.11 319.089 325.724 317.476C327.338 315.862 328.246 313.676 328.249 311.394V79.5593C328.246 77.2781 327.338 75.0912 325.724 73.4781C324.11 71.865 321.922 70.9573 319.64 70.9541ZM327.237 311.394C327.234 313.407 326.433 315.337 325.009 316.761C323.585 318.184 321.654 318.985 319.64 318.987H120.096C118.082 318.985 116.151 318.184 114.727 316.761C113.302 315.337 112.501 313.407 112.499 311.394V79.5593C112.501 77.5463 113.302 75.6165 114.727 74.1931C116.151 72.7697 118.082 71.9689 120.096 71.9665H319.64C321.654 71.9689 323.585 72.7697 325.009 74.1931C326.433 75.6165 327.234 77.5463 327.237 79.5593V311.394Z" fill="#3F3D56"/>
<path d="M266.462 93.2265H173.274C172.065 93.2252 170.907 92.7448 170.052 91.8907C169.198 91.0366 168.717 89.8787 168.716 88.6708V66.3985C168.717 65.1907 169.198 64.0327 170.052 63.1786C170.907 62.3245 172.065 61.8441 173.274 61.8428H266.462C267.671 61.8441 268.829 62.3245 269.684 63.1786C270.538 64.0327 271.019 65.1907 271.02 66.3985V88.6708C271.019 89.8787 270.538 91.0366 269.684 91.8907C268.829 92.7448 267.671 93.2252 266.462 93.2265Z" fill="#E0E7FF"/>
<path d="M219.868 63.3619C225.462 63.3619 229.997 58.8293 229.997 53.2381C229.997 47.6468 225.462 43.1143 219.868 43.1143C214.274 43.1143 209.739 47.6468 209.739 53.2381C209.739 58.8293 214.274 63.3619 219.868 63.3619Z" fill="#E0E7FF"/>
<path d="M219.868 59.404C223.275 59.404 226.037 56.6432 226.037 53.2376C226.037 49.8321 223.275 47.0713 219.868 47.0713C216.46 47.0713 213.698 49.8321 213.698 53.2376C213.698 56.6432 216.46 59.404 219.868 59.404Z" fill="white"/>
</g>
<defs>
<clipPath id="clip0_4171_6153">
<rect width="328" height="320" fill="white" transform="translate(0.249512)"/>
</clipPath>
</defs>
</svg>
