<svg width="108" height="50" viewBox="0 0 108 50" fill="none" xmlns="http://www.w3.org/2000/svg">
<path d="M24.9511 7.93456C24.912 7.94432 24.6825 7.9785 24.4384 8.0078C23.9989 8.06639 23.6522 8.14452 23.2421 8.28612C22.9296 8.39354 21.9774 8.85741 21.7968 8.99413C20.9276 9.63378 20.6395 9.90233 20.1659 10.5176C19.6532 11.1865 18.8964 12.4951 18.8964 12.7148C18.8964 12.7881 18.9989 12.8418 19.1356 12.8418C19.1796 12.8418 19.4823 12.9297 19.8046 13.0371C20.122 13.1494 20.4589 13.2568 20.5468 13.2861C20.6298 13.3105 20.703 13.3496 20.703 13.374C20.703 13.3935 20.7323 13.4131 20.7665 13.4131C20.7958 13.4131 20.9667 13.4814 21.1425 13.5596C22.0311 13.9697 22.2167 14.0185 22.2167 13.8476C22.2167 13.75 22.7831 13.0078 23.0907 12.7002C23.4325 12.3584 23.828 12.0898 24.1796 11.9531C24.9999 11.6357 26.0448 11.7041 26.7723 12.1191C26.8993 12.1973 27.0214 12.2558 27.0409 12.2558C27.119 12.2558 27.7929 12.959 27.9735 13.2226C28.4374 13.9062 28.6425 14.4238 28.8573 15.4297C28.9403 15.8252 29.0477 17.0849 29.0477 17.6758C29.0477 18.2715 28.9452 19.3457 28.8378 19.873C28.6718 20.6738 28.6473 20.791 28.5595 21.1865C28.5106 21.4111 28.452 21.6162 28.4227 21.6455C28.369 21.6992 28.2323 21.4502 28.0809 21.001C28.0223 20.8301 27.9296 20.6006 27.8759 20.4883C27.7196 20.1807 27.246 19.4287 27.0897 19.248C27.0165 19.1601 26.953 19.0674 26.953 19.0381C26.953 18.9062 24.9657 16.9922 24.8241 16.9922C24.8143 16.9922 24.7411 16.9385 24.6679 16.8701C24.5946 16.8017 24.5165 16.748 24.497 16.748C24.4725 16.748 24.3309 16.6504 24.1796 16.5381C23.872 16.2988 23.164 15.8447 22.9491 15.7422C22.91 15.7226 22.788 15.6494 22.6806 15.581C22.4559 15.4394 21.8651 15.1367 21.8163 15.1367C21.7968 15.1367 21.6454 15.0732 21.4745 14.9951C21.3036 14.9219 21.079 14.8242 20.9716 14.7803C20.8641 14.7412 20.6884 14.6728 20.5809 14.6338C20.0341 14.4287 19.5458 14.2578 19.4921 14.2578C19.4579 14.2578 19.1991 14.1894 18.9061 14.1113C17.3973 13.6816 17.2704 13.6621 15.8788 13.6621L14.6239 13.6572L13.994 13.833C13.6522 13.9307 13.3446 14.0283 13.3104 14.0527C13.2811 14.0723 13.1688 14.1211 13.0614 14.1553C12.7636 14.2578 12.3436 14.458 12.1776 14.5849C12.0946 14.6484 12.0116 14.6973 11.9921 14.6973C11.8895 14.6973 11.2841 15.1904 10.9813 15.5224C10.288 16.2695 9.76551 17.3096 9.46766 18.5303C9.38954 18.8672 9.35536 20.4053 9.41883 20.8008C9.53602 21.5234 9.5702 21.6748 9.73133 22.124C10.0536 23.0224 10.4931 23.7891 11.1425 24.6045C11.6307 25.2148 11.5722 25.2051 12.0848 24.7217C12.329 24.4971 12.578 24.2724 12.6464 24.2285C12.7147 24.1846 13.0516 23.9209 13.3934 23.6426C13.7401 23.3594 14.1307 23.0615 14.2626 22.9736L14.5067 22.8125L14.1747 22.417C13.5643 21.6894 13.4325 21.4697 13.2274 20.8252C13.1054 20.4297 13.0956 19.4922 13.2177 19.126C13.4569 18.3838 13.955 17.8808 14.7069 17.6269C15.0145 17.5244 15.0975 17.5195 16.0595 17.5391C16.787 17.5488 17.1044 17.5732 17.1483 17.6172C17.1776 17.6465 17.2704 17.6758 17.3436 17.6758C17.4852 17.6758 18.2079 17.8418 18.3837 17.9199C18.4374 17.9394 18.6229 18.0078 18.7987 18.0664C18.9745 18.125 19.1405 18.1933 19.1649 18.2129C19.1942 18.2324 19.2821 18.2617 19.3602 18.2812C19.5507 18.3252 21.1913 19.1357 21.5087 19.3408C21.7333 19.4873 22.2802 19.8486 22.5292 20.0195C22.7098 20.1465 23.413 20.6738 23.4374 20.7031C23.452 20.7178 23.6913 20.9277 23.9745 21.1621C24.2577 21.4014 24.497 21.6162 24.5067 21.6406C24.5116 21.665 24.4823 21.7139 24.4335 21.748C24.3651 21.8017 24.0917 21.8066 23.1737 21.7871C22.2167 21.7676 21.9188 21.7822 21.577 21.8457C21.3475 21.8896 21.0595 21.9238 20.9325 21.9238C20.8104 21.9238 20.6493 21.9482 20.5712 21.9775C20.4979 22.0068 20.3026 22.0459 20.1415 22.0703C19.7216 22.1338 19.2138 22.2412 18.872 22.3389C18.7108 22.3828 18.5155 22.4365 18.4325 22.4609C18.2128 22.5146 17.7196 22.6855 17.2948 22.8564C16.5038 23.1689 14.6825 24.1846 14.2723 24.5459C14.1698 24.6338 14.0673 24.707 14.0429 24.707C14.0184 24.707 13.9159 24.7803 13.8182 24.8633C13.7157 24.9512 13.5302 25.0976 13.4081 25.1904C12.9638 25.5127 11.5575 26.9726 11.2255 27.4512C10.3368 28.7256 10.0585 29.2871 9.61903 30.6933C9.3993 31.3867 9.3993 33.2764 9.61903 33.9599C10.1513 35.6152 10.7958 36.4844 12.2313 37.4805C12.6757 37.7881 13.7645 38.2226 14.3798 38.3349C15.0292 38.457 15.5126 38.4863 16.4061 38.4619C17.4169 38.4375 17.5536 38.4131 17.5048 38.2861C17.4901 38.2471 17.4315 38.0469 17.3729 37.8418C17.1239 36.9238 16.997 36.3525 16.9432 35.9521C16.9188 35.7715 16.8749 35.4199 16.8407 35.1709L16.7821 34.7217L15.9227 34.7021C15.0097 34.6875 14.9315 34.6728 14.4872 34.4092C14.0282 34.1357 13.4276 33.4326 13.4276 33.164C13.4276 33.1201 13.3934 33.0176 13.3544 32.9394C13.2518 32.7441 13.2518 31.7529 13.3544 31.5088C13.3934 31.416 13.4276 31.2988 13.4276 31.25C13.4276 31.2012 13.4618 31.0986 13.5009 31.0254C13.5399 30.9473 13.5741 30.8496 13.5741 30.8105C13.5741 30.7666 13.5985 30.708 13.6278 30.6787C13.6571 30.6494 13.7059 30.581 13.7401 30.5273C14.1552 29.7998 15.2098 28.6963 16.0448 28.1006C17.0409 27.3926 17.7343 27.0068 18.7108 26.6162C19.8095 26.1767 20.7079 25.9277 20.8251 26.0254C20.8886 26.0791 20.8641 26.3183 20.8007 26.3183C20.7811 26.3183 20.6786 26.4453 20.5761 26.5967C20.4686 26.7529 20.2343 27.0996 20.0438 27.373C19.8583 27.6416 19.6727 27.915 19.6337 27.9834C19.2723 28.5937 19.1454 28.8476 18.9159 29.4092C18.7694 29.7607 18.6522 30.0879 18.6522 30.1318C18.6522 30.1758 18.6181 30.293 18.579 30.3857C18.5399 30.4834 18.5057 30.625 18.5057 30.7031C18.5057 30.7764 18.4862 30.8594 18.4569 30.8887C18.413 30.9326 18.3739 31.1182 18.2372 32.0068C18.1981 32.2461 18.1444 32.5781 18.12 32.7392C18.0516 33.1055 18.0565 35.293 18.12 35.6201C18.1493 35.7519 18.1884 35.9961 18.2079 36.1572C18.2616 36.5137 18.3397 36.8457 18.6083 37.793C19.0917 39.5166 20.2294 41.3769 21.3964 42.3437C22.2753 43.081 23.0126 43.4424 24.0722 43.667C24.4921 43.7598 25.5809 43.8623 25.6884 43.8281C25.7274 43.8135 26.0009 43.7793 26.2938 43.7549C27.0067 43.6914 27.5682 43.5498 28.0907 43.3008C28.2421 43.2226 28.3886 43.164 28.413 43.164C28.4325 43.164 28.6815 43.0127 28.9598 42.8271C29.9706 42.1582 30.8739 41.1523 31.3964 40.1123C31.4891 39.9219 31.577 39.7607 31.5917 39.7461C31.6503 39.6875 31.787 39.4531 31.787 39.4043C31.787 39.375 31.7284 39.331 31.6552 39.3017C31.577 39.2773 31.455 39.2236 31.372 39.1894C31.2938 39.1504 31.1034 39.082 30.9569 39.0381C30.8104 38.9892 30.6444 38.9209 30.5907 38.8818C30.537 38.8476 30.454 38.8183 30.41 38.8183C30.3612 38.8183 30.2831 38.7988 30.2343 38.7744C30.1903 38.75 30.0536 38.6865 29.9315 38.6328C29.8095 38.5791 29.4725 38.418 29.1796 38.2764C28.5985 37.998 28.5546 37.998 28.413 38.2715C28.369 38.3545 28.2763 38.501 28.203 38.5937C28.1347 38.6865 28.0761 38.7744 28.0761 38.789C28.0761 38.8281 27.8856 39.0576 27.7001 39.2383C27.5048 39.4336 26.9091 39.7949 26.6014 39.9121C26.3182 40.0146 25.5077 40.1025 25.1708 40.0635C24.4188 39.9707 23.5692 39.4385 23.1151 38.7695C22.8222 38.3398 22.7587 38.2373 22.5927 37.9248C22.4901 37.7441 22.412 37.5635 22.412 37.5293C22.412 37.4902 22.3827 37.3535 22.3436 37.2265C22.3046 37.0947 22.2509 36.8652 22.2216 36.7187C22.1923 36.5723 22.1337 36.2939 22.0946 36.1084C22.0507 35.918 21.997 35.5469 21.9725 35.2783C21.9481 35.0098 21.9042 34.5996 21.8798 34.3701C21.8505 34.0918 21.8505 33.7353 21.8847 33.3447C21.9091 33.0127 21.9481 32.5098 21.9725 32.2265C22.036 31.3525 22.202 30.5322 22.3388 30.4199C22.4022 30.3662 22.4315 30.4004 22.5341 30.6348C22.6024 30.7861 22.6561 30.9424 22.6561 30.9863C22.6561 31.2305 23.3593 32.4267 23.9159 33.125C24.3212 33.6377 25.1708 34.4922 25.5809 34.8047C26.0839 35.1904 26.7089 35.6445 26.7382 35.6445C26.7772 35.6445 27.0751 35.8594 27.0897 35.8984C27.0995 35.9228 27.1288 35.9375 27.1581 35.9375C27.1825 35.9375 27.2655 35.9765 27.3339 36.0303C27.4071 36.0791 27.6513 36.2158 27.8807 36.333C28.1102 36.4453 28.33 36.5674 28.369 36.5967C28.4716 36.6748 30.0194 37.3584 30.2001 37.4072C30.2831 37.4267 30.5663 37.5244 30.8348 37.6221C32.0458 38.0664 32.9052 38.2568 34.0331 38.3398C34.8778 38.3984 35.9423 38.3496 36.455 38.2275C38.5204 37.7441 40.0341 36.6064 40.8495 34.9316C41.0643 34.4873 41.1376 34.2871 41.3085 33.667C41.3915 33.3789 41.4061 33.1592 41.4061 32.2217C41.4061 31.0937 41.4013 31.0596 41.1864 30.3662C41.1473 30.2392 41.1132 30.1123 41.1132 30.0781C41.1132 30.0098 40.6932 29.1406 40.4979 28.8135C40.3954 28.6328 40.1659 28.3105 39.9999 28.1006C39.9804 28.0713 39.9071 27.9639 39.8436 27.8564C39.7802 27.749 39.7118 27.6514 39.6972 27.6367C39.6337 27.583 39.3114 27.168 39.3016 27.124C39.2772 27.0557 39.1454 26.9043 39.1063 26.9043C39.0917 26.9043 39.0136 26.9971 38.9354 27.1094C38.8573 27.2217 38.7059 27.3926 38.6034 27.4902C38.496 27.583 38.33 27.7392 38.2372 27.832C38.1395 27.9297 37.91 28.1299 37.7196 28.2764C37.5341 28.4277 37.3485 28.584 37.3095 28.6279C37.2753 28.6767 37.2167 28.7109 37.1825 28.7109C37.1532 28.7109 36.997 28.8232 36.8407 28.9599C36.6845 29.0918 36.5087 29.2383 36.4452 29.2822C36.3817 29.3213 36.328 29.375 36.328 29.3945C36.328 29.4189 36.4354 29.541 36.5673 29.6631C36.704 29.79 36.8456 29.9658 36.8895 30.0586C36.9286 30.1465 37.0165 30.2832 37.0751 30.3564C37.2167 30.5322 37.4169 30.9131 37.5438 31.25C37.6268 31.4697 37.6464 31.6308 37.6464 32.1387C37.6464 32.4805 37.6268 32.7685 37.6024 32.7881C37.578 32.8027 37.5389 32.8857 37.5243 32.9736C37.4169 33.457 36.8602 34.082 36.3329 34.3066C35.6786 34.5849 34.4579 34.5898 33.3251 34.3262C32.5292 34.1406 32.0702 34.0137 31.787 33.9111C31.3231 33.7402 31.1034 33.6572 30.6981 33.4765C30.5956 33.4326 30.4882 33.3984 30.4589 33.3984C30.3807 33.3984 29.995 33.1738 28.9257 32.5C28.1786 32.0312 27.4169 31.4648 26.7577 30.8887C26.2987 30.4883 26.1718 30.3662 26.1718 30.3223C26.1718 30.2441 26.4501 30.2246 27.8563 30.2197C28.662 30.2197 29.5067 30.2002 29.7362 30.1758C30.703 30.0732 31.1522 30 31.7382 29.834C31.8309 29.8047 32.0946 29.7314 32.3241 29.668C32.5536 29.6045 32.8807 29.5019 33.0565 29.4433C33.6718 29.2383 35.1952 28.5254 35.4003 28.3447C35.4393 28.3105 35.5516 28.2471 35.6444 28.1982C35.8837 28.0762 36.2743 27.8174 36.8016 27.4316C37.3143 27.0557 38.8182 25.6103 39.2431 25.083C39.3993 24.8877 39.5604 24.6924 39.6093 24.6435C39.912 24.3066 40.6591 23.0127 40.8446 22.5098C40.8886 22.3877 40.9667 22.1924 41.0155 22.0703C41.0643 21.9482 41.1425 21.709 41.1864 21.5332C41.2304 21.3574 41.2889 21.1377 41.3134 21.0449C41.411 20.6787 41.4745 19.4385 41.4159 18.8769C41.3866 18.5742 41.3427 18.2764 41.3182 18.208C41.2938 18.1445 41.2352 17.959 41.1864 17.7978C41.1425 17.6367 41.0595 17.4267 41.0106 17.3291C40.9569 17.2314 40.9179 17.1142 40.9179 17.0752C40.9179 17.0361 40.9032 16.9922 40.8837 16.9824C40.8593 16.9726 40.8007 16.8799 40.7518 16.7724C40.371 15.9814 39.4725 15.0293 38.6278 14.5215C38.2177 14.2676 37.7538 14.0283 37.5731 13.9697C37.495 13.9404 37.2948 13.8721 37.1337 13.8135C36.494 13.584 35.6591 13.4814 34.3944 13.4814C33.4911 13.4766 33.4618 13.4863 33.5399 13.7988C33.5692 13.9062 33.6132 14.0967 33.6425 14.2334C33.6718 14.3652 33.7157 14.541 33.7401 14.624C33.7645 14.7021 33.8085 14.917 33.8329 15.0976C33.8573 15.2783 33.8915 15.4492 33.9061 15.4736C33.9208 15.498 33.9598 15.791 33.9891 16.123C34.0233 16.4502 34.0575 16.8457 34.077 16.9922L34.1063 17.2558L34.7167 17.2607C35.4931 17.2705 35.9325 17.373 36.411 17.6611C37.0311 18.0371 37.3583 18.5205 37.5536 19.3408C37.661 19.79 37.661 19.7998 37.578 20.2392C37.3681 21.3183 36.8114 22.2363 35.7323 23.2666C34.995 23.9697 34.5995 24.2773 33.8866 24.7021C33.6034 24.8682 33.3397 25.0244 33.3007 25.0488C33.1981 25.1123 32.4852 25.459 32.2509 25.5566C32.1434 25.6006 32.0165 25.6592 31.9725 25.6836C31.9237 25.7129 31.8554 25.7324 31.8163 25.7324C31.7772 25.7324 31.6845 25.7568 31.6063 25.791C31.4257 25.8642 30.5761 26.0693 30.0927 26.1572C29.8192 26.2012 29.8339 25.9863 30.1171 25.6885C30.288 25.5127 30.5077 25.2148 30.6347 24.9756C30.7079 24.8389 30.8104 24.6875 30.8544 24.6338C30.9032 24.5801 30.9569 24.5019 30.9764 24.4629C30.996 24.4238 31.035 24.3457 31.0692 24.292C31.2694 23.9599 31.5184 23.501 31.5282 23.4277C31.5331 23.3838 31.5819 23.2764 31.6356 23.1836C31.6845 23.0957 31.8212 22.7783 31.9335 22.4853C32.0458 22.1875 32.1679 21.8799 32.202 21.8017C32.2362 21.7187 32.2802 21.6016 32.2948 21.5332C32.3485 21.2744 32.4364 20.9668 32.4999 20.8105C32.5389 20.7226 32.5682 20.5908 32.5682 20.5224C32.5682 20.4541 32.5975 20.2832 32.6366 20.1465C32.8612 19.3457 32.9442 17.0849 32.7831 16.0498C32.622 14.9658 32.3534 13.8183 32.1141 13.1494C31.9774 12.7783 31.5526 11.831 31.4696 11.7187C31.4403 11.6797 31.3671 11.5478 31.2987 11.4258C31.0009 10.8594 30.0341 9.76561 29.4139 9.2871C28.745 8.76952 27.9686 8.38378 27.0995 8.13964C26.5526 7.98339 25.3075 7.8662 24.9511 7.93456ZM25.952 22.3828C26.8993 22.5488 27.6561 22.9932 28.2323 23.7305C28.6376 24.248 28.8964 24.8096 29.0038 25.3906C29.0331 25.5664 29.0673 25.7519 29.077 25.8057C29.1063 25.9521 28.9598 26.9482 28.8671 27.1973C28.5302 28.1348 27.8661 28.8379 26.8554 29.331C26.2743 29.6094 26.2841 29.6094 25.4882 29.6045C24.8388 29.6045 24.6825 29.5898 24.4188 29.4971C23.8427 29.2969 23.3153 28.9844 22.91 28.5937C22.6806 28.3789 22.2655 27.7832 22.2655 27.6758C22.2655 27.6367 22.2362 27.5683 22.1972 27.5146C22.1288 27.4072 22.0214 27.0654 21.8944 26.543C21.6454 25.4932 22.1679 23.9844 23.037 23.2568C23.6522 22.7344 24.2919 22.4365 24.9315 22.3682C25.4882 22.3096 25.5223 22.3096 25.952 22.3828Z" fill="#EEF2FF"/>
<path d="M25.2051 23.7842C24.8438 23.8232 24.6094 23.8965 24.2236 24.0869C24.0186 24.1894 23.5596 24.7412 23.3936 25.083C23.2324 25.4053 23.2275 25.4345 23.2275 26.001C23.2324 26.5283 23.2422 26.6162 23.3594 26.875C23.5645 27.3242 23.7451 27.5439 24.1455 27.8271C24.5801 28.1347 25.3857 28.291 25.9521 28.1738C26.5674 28.0517 27.2217 27.5488 27.5391 26.9531C27.7051 26.6455 27.71 26.6211 27.71 26.0742C27.71 25.4101 27.6611 25.2636 27.2559 24.7168C27.0068 24.3799 26.5088 23.9746 26.3477 23.9746C26.3184 23.9746 26.2695 23.9551 26.2451 23.9355C26.2012 23.8965 25.8789 23.7988 25.6836 23.7597C25.6445 23.75 25.4297 23.7646 25.2051 23.7842Z" fill="#EEF2FF"/>
<path d="M63.4005 21.8087C63.4005 23.8403 62.8861 25.4011 61.8572 26.491C60.837 27.5722 59.3591 28.1128 57.4234 28.1128H56.534V35.0447H52.9766V15.9232H57.8289C61.5433 15.9232 63.4005 17.8851 63.4005 21.8087ZM56.534 25.0262H57.2141C58.0861 25.0262 58.7357 24.7864 59.1629 24.3068C59.5902 23.8273 59.8038 23.0425 59.8038 21.9526C59.8038 20.9499 59.6076 20.2087 59.2152 19.7292C58.8229 19.2409 58.2169 18.9968 57.3973 18.9968H56.534V25.0262Z" fill="#EEF2FF"/>
<path d="M76.401 27.7335C76.401 30.1226 75.8953 31.9842 74.8838 33.3182C73.8724 34.6436 72.486 35.3062 70.7247 35.3062C69.6086 35.3062 68.6234 35.0011 67.7689 34.3907C66.9144 33.7804 66.2561 32.9041 65.7939 31.7618C65.3318 30.6109 65.1008 29.2681 65.1008 27.7335C65.1008 25.3706 65.6021 23.5264 66.6048 22.2011C67.6076 20.8671 68.9983 20.2 70.777 20.2C72.4947 20.2 73.8593 20.8801 74.8707 22.2403C75.8909 23.5918 76.401 25.4229 76.401 27.7335ZM68.6582 27.7335C68.6582 29.2507 68.8239 30.3973 69.1552 31.1733C69.4866 31.9493 70.0184 32.3373 70.7509 32.3373C72.146 32.3373 72.8435 30.8027 72.8435 27.7335C72.8435 26.2076 72.6735 25.0698 72.3334 24.3199C72.0021 23.5613 71.4746 23.182 70.7509 23.182C70.0184 23.182 69.4866 23.5613 69.1552 24.3199C68.8239 25.0698 68.6582 26.2076 68.6582 27.7335Z" fill="#EEF2FF"/>
<path d="M82.3258 35.0447H78.8467V14.6938H82.3258V35.0447Z" fill="#EEF2FF"/>
<path d="M87.5835 35.0447L83.7775 20.4747H87.3873L89.2445 28.9106C89.323 29.303 89.4146 29.8785 89.5192 30.637C89.6325 31.3869 89.7023 31.9275 89.7284 32.2588H89.7808C89.7895 31.9973 89.8244 31.6223 89.8854 31.134C89.9551 30.6458 90.0249 30.1967 90.0947 29.7869C90.1644 29.3771 90.8358 26.273 92.1088 20.4747H95.7186L91.8996 35.0447H87.5835Z" fill="#EEF2FF"/>
<path d="M108 27.7335C108 30.1226 107.494 31.9842 106.483 33.3182C105.471 34.6436 104.085 35.3062 102.323 35.3062C101.207 35.3062 100.222 35.0011 99.3676 34.3907C98.5131 33.7804 97.8548 32.9041 97.3927 31.7618C96.9306 30.6109 96.6995 29.2681 96.6995 27.7335C96.6995 25.3706 97.2009 23.5264 98.2036 22.2011C99.2063 20.8671 100.597 20.2 102.376 20.2C104.094 20.2 105.458 20.8801 106.47 22.2403C107.49 23.5918 108 25.4229 108 27.7335ZM100.257 27.7335C100.257 29.2507 100.423 30.3973 100.754 31.1733C101.085 31.9493 101.617 32.3373 102.35 32.3373C103.745 32.3373 104.442 30.8027 104.442 27.7335C104.442 26.2076 104.272 25.0698 103.932 24.3199C103.601 23.5613 103.073 23.182 102.35 23.182C101.617 23.182 101.085 23.5613 100.754 24.3199C100.423 25.0698 100.257 26.2076 100.257 27.7335Z" fill="#EEF2FF"/>
</svg>
