<svg width="50" height="50" viewBox="0 0 50 50" fill="none" xmlns="http://www.w3.org/2000/svg">
<path d="M23.9745 7.93456C23.9354 7.94432 23.7059 7.9785 23.4618 8.0078C23.0223 8.06639 22.6757 8.14452 22.2655 8.28612C21.953 8.39354 21.0009 8.85741 20.8202 8.99413C19.9511 9.63378 19.663 9.90233 19.1893 10.5176C18.6766 11.1865 17.9198 12.4951 17.9198 12.7148C17.9198 12.7881 18.0223 12.8418 18.1591 12.8418C18.203 12.8418 18.5057 12.9297 18.828 13.0371C19.1454 13.1494 19.4823 13.2568 19.5702 13.2861C19.6532 13.3105 19.7265 13.3496 19.7265 13.374C19.7265 13.3935 19.7557 13.4131 19.7899 13.4131C19.8192 13.4131 19.9901 13.4814 20.1659 13.5596C21.0546 13.9697 21.2401 14.0185 21.2401 13.8476C21.2401 13.75 21.8065 13.0078 22.1141 12.7002C22.4559 12.3584 22.8515 12.0898 23.203 11.9531C24.0233 11.6357 25.0682 11.7041 25.7958 12.1191C25.9227 12.1973 26.0448 12.2558 26.0643 12.2558C26.1425 12.2558 26.8163 12.959 26.997 13.2226C27.4608 13.9062 27.6659 14.4238 27.8807 15.4297C27.9638 15.8252 28.0712 17.0849 28.0712 17.6758C28.0712 18.2715 27.9686 19.3457 27.8612 19.873C27.6952 20.6738 27.6708 20.791 27.5829 21.1865C27.5341 21.4111 27.4755 21.6162 27.4462 21.6455C27.3925 21.6992 27.2557 21.4502 27.1044 21.001C27.0458 20.8301 26.953 20.6006 26.8993 20.4883C26.7431 20.1807 26.2694 19.4287 26.1132 19.248C26.0399 19.1601 25.9764 19.0674 25.9764 19.0381C25.9764 18.9062 23.9891 16.9922 23.8475 16.9922C23.8378 16.9922 23.7645 16.9385 23.6913 16.8701C23.6181 16.8017 23.5399 16.748 23.5204 16.748C23.496 16.748 23.3544 16.6504 23.203 16.5381C22.8954 16.2988 22.1874 15.8447 21.9725 15.7422C21.9335 15.7226 21.8114 15.6494 21.704 15.581C21.4794 15.4394 20.8886 15.1367 20.8397 15.1367C20.8202 15.1367 20.6688 15.0732 20.4979 14.9951C20.327 14.9219 20.1024 14.8242 19.995 14.7803C19.8876 14.7412 19.7118 14.6728 19.6044 14.6338C19.0575 14.4287 18.5692 14.2578 18.5155 14.2578C18.4813 14.2578 18.2225 14.1894 17.9296 14.1113C16.4208 13.6816 16.2938 13.6621 14.9022 13.6621L13.6473 13.6572L13.0175 13.833C12.6757 13.9307 12.3681 14.0283 12.3339 14.0527C12.3046 14.0723 12.1923 14.1211 12.0848 14.1553C11.787 14.2578 11.3671 14.458 11.2011 14.5849C11.1181 14.6484 11.035 14.6973 11.0155 14.6973C10.913 14.6973 10.3075 15.1904 10.0048 15.5224C9.31141 16.2695 8.78895 17.3096 8.4911 18.5303C8.41297 18.8672 8.3788 20.4053 8.44227 20.8008C8.55946 21.5234 8.59364 21.6748 8.75477 22.124C9.07704 23.0224 9.51649 23.7891 10.1659 24.6045C10.6542 25.2148 10.5956 25.2051 11.1083 24.7217C11.3524 24.4971 11.6015 24.2724 11.6698 24.2285C11.7382 24.1846 12.0751 23.9209 12.4169 23.6426C12.7636 23.3594 13.1542 23.0615 13.286 22.9736L13.5302 22.8125L13.1981 22.417C12.5878 21.6894 12.4559 21.4697 12.2509 20.8252C12.1288 20.4297 12.119 19.4922 12.2411 19.126C12.4804 18.3838 12.9784 17.8808 13.7304 17.6269C14.038 17.5244 14.121 17.5195 15.0829 17.5391C15.8104 17.5488 16.1278 17.5732 16.1718 17.6172C16.2011 17.6465 16.2938 17.6758 16.3671 17.6758C16.5087 17.6758 17.2313 17.8418 17.4071 17.9199C17.4608 17.9394 17.6464 18.0078 17.8222 18.0664C17.9979 18.125 18.1639 18.1933 18.1884 18.2129C18.2177 18.2324 18.3056 18.2617 18.3837 18.2812C18.5741 18.3252 20.2147 19.1357 20.5321 19.3408C20.7567 19.4873 21.3036 19.8486 21.5526 20.0195C21.7333 20.1465 22.4364 20.6738 22.4608 20.7031C22.4755 20.7178 22.7147 20.9277 22.9979 21.1621C23.2811 21.4014 23.5204 21.6162 23.5302 21.6406C23.535 21.665 23.5057 21.7139 23.4569 21.748C23.3886 21.8017 23.1151 21.8066 22.1972 21.7871C21.2401 21.7676 20.9423 21.7822 20.6005 21.8457C20.371 21.8896 20.0829 21.9238 19.9559 21.9238C19.8339 21.9238 19.6727 21.9482 19.5946 21.9775C19.5214 22.0068 19.3261 22.0459 19.1649 22.0703C18.745 22.1338 18.2372 22.2412 17.8954 22.3389C17.7343 22.3828 17.5389 22.4365 17.4559 22.4609C17.2362 22.5146 16.7431 22.6855 16.3182 22.8564C15.5272 23.1689 13.7059 24.1846 13.2958 24.5459C13.1932 24.6338 13.0907 24.707 13.0663 24.707C13.0419 24.707 12.9393 24.7803 12.8417 24.8633C12.7391 24.9512 12.5536 25.0976 12.4315 25.1904C11.9872 25.5127 10.5809 26.9726 10.2489 27.4512C9.36024 28.7256 9.08192 29.2871 8.64247 30.6933C8.42274 31.3867 8.42274 33.2764 8.64247 33.9599C9.17469 35.6152 9.81922 36.4844 11.2548 37.4805C11.6991 37.7881 12.788 38.2226 13.4032 38.3349C14.0526 38.457 14.536 38.4863 15.4296 38.4619C16.4403 38.4375 16.577 38.4131 16.5282 38.2861C16.5136 38.2471 16.455 38.0469 16.3964 37.8418C16.1473 36.9238 16.0204 36.3525 15.9667 35.9521C15.9423 35.7715 15.8983 35.4199 15.8641 35.1709L15.8056 34.7217L14.9462 34.7021C14.0331 34.6875 13.955 34.6728 13.5106 34.4092C13.0516 34.1357 12.4511 33.4326 12.4511 33.164C12.4511 33.1201 12.4169 33.0176 12.3778 32.9394C12.2753 32.7441 12.2753 31.7529 12.3778 31.5088C12.4169 31.416 12.4511 31.2988 12.4511 31.25C12.4511 31.2012 12.4852 31.0986 12.5243 31.0254C12.5634 30.9473 12.5975 30.8496 12.5975 30.8105C12.5975 30.7666 12.622 30.708 12.6513 30.6787C12.6806 30.6494 12.7294 30.581 12.7636 30.5273C13.1786 29.7998 14.2333 28.6963 15.0682 28.1006C16.0643 27.3926 16.7577 27.0068 17.7343 26.6162C18.8329 26.1767 19.7313 25.9277 19.8485 26.0254C19.912 26.0791 19.8876 26.3183 19.8241 26.3183C19.8046 26.3183 19.702 26.4453 19.5995 26.5967C19.4921 26.7529 19.2577 27.0996 19.0673 27.373C18.8817 27.6416 18.6962 27.915 18.6571 27.9834C18.2958 28.5937 18.1688 28.8476 17.9393 29.4092C17.7929 29.7607 17.6757 30.0879 17.6757 30.1318C17.6757 30.1758 17.6415 30.293 17.6024 30.3857C17.5634 30.4834 17.5292 30.625 17.5292 30.7031C17.5292 30.7764 17.5097 30.8594 17.4804 30.8887C17.4364 30.9326 17.3973 31.1182 17.2606 32.0068C17.2216 32.2461 17.1679 32.5781 17.1434 32.7392C17.0751 33.1055 17.08 35.293 17.1434 35.6201C17.1727 35.7519 17.2118 35.9961 17.2313 36.1572C17.285 36.5137 17.3632 36.8457 17.6317 37.793C18.1151 39.5166 19.2528 41.3769 20.4198 42.3437C21.2987 43.081 22.036 43.4424 23.0956 43.667C23.5155 43.7598 24.6044 43.8623 24.7118 43.8281C24.7509 43.8135 25.0243 43.7793 25.3173 43.7549C26.0302 43.6914 26.5917 43.5498 27.1141 43.3008C27.2655 43.2226 27.412 43.164 27.4364 43.164C27.4559 43.164 27.705 43.0127 27.9833 42.8271C28.994 42.1582 29.8973 41.1523 30.4198 40.1123C30.5126 39.9219 30.6005 39.7607 30.6151 39.7461C30.6737 39.6875 30.8104 39.4531 30.8104 39.4043C30.8104 39.375 30.7518 39.331 30.6786 39.3017C30.6005 39.2773 30.4784 39.2236 30.3954 39.1894C30.3173 39.1504 30.1268 39.082 29.9804 39.0381C29.8339 38.9892 29.6679 38.9209 29.6141 38.8818C29.5604 38.8476 29.4774 38.8183 29.4335 38.8183C29.3847 38.8183 29.3065 38.7988 29.2577 38.7744C29.2138 38.75 29.077 38.6865 28.955 38.6328C28.8329 38.5791 28.496 38.418 28.203 38.2764C27.622 37.998 27.578 37.998 27.4364 38.2715C27.3925 38.3545 27.2997 38.501 27.2264 38.5937C27.1581 38.6865 27.0995 38.7744 27.0995 38.789C27.0995 38.8281 26.9091 39.0576 26.7235 39.2383C26.5282 39.4336 25.9325 39.7949 25.6249 39.9121C25.3417 40.0146 24.5311 40.1025 24.1942 40.0635C23.4423 39.9707 22.5927 39.4385 22.1386 38.7695C21.8456 38.3398 21.7821 38.2373 21.6161 37.9248C21.5136 37.7441 21.4354 37.5635 21.4354 37.5293C21.4354 37.4902 21.4061 37.3535 21.3671 37.2265C21.328 37.0947 21.2743 36.8652 21.245 36.7187C21.2157 36.5723 21.1571 36.2939 21.1181 36.1084C21.0741 35.918 21.0204 35.5469 20.996 35.2783C20.9716 35.0098 20.9276 34.5996 20.9032 34.3701C20.8739 34.0918 20.8739 33.7353 20.9081 33.3447C20.9325 33.0127 20.9716 32.5098 20.996 32.2265C21.0595 31.3525 21.2255 30.5322 21.3622 30.4199C21.4257 30.3662 21.455 30.4004 21.5575 30.6348C21.6259 30.7861 21.6796 30.9424 21.6796 30.9863C21.6796 31.2305 22.3827 32.4267 22.9393 33.125C23.3446 33.6377 24.1942 34.4922 24.6044 34.8047C25.1073 35.1904 25.7323 35.6445 25.7616 35.6445C25.8007 35.6445 26.0985 35.8594 26.1132 35.8984C26.1229 35.9228 26.1522 35.9375 26.1815 35.9375C26.2059 35.9375 26.2889 35.9765 26.3573 36.0303C26.4306 36.0791 26.6747 36.2158 26.9042 36.333C27.1337 36.4453 27.3534 36.5674 27.3925 36.5967C27.495 36.6748 29.0429 37.3584 29.2235 37.4072C29.3065 37.4267 29.5897 37.5244 29.8583 37.6221C31.0692 38.0664 31.9286 38.2568 33.0565 38.3398C33.9013 38.3984 34.9657 38.3496 35.4784 38.2275C37.5438 37.7441 39.0575 36.6064 39.8729 34.9316C40.0878 34.4873 40.161 34.2871 40.3319 33.667C40.4149 33.3789 40.4296 33.1592 40.4296 32.2217C40.4296 31.0937 40.4247 31.0596 40.2098 30.3662C40.1708 30.2392 40.1366 30.1123 40.1366 30.0781C40.1366 30.0098 39.7167 29.1406 39.5214 28.8135C39.4188 28.6328 39.1893 28.3105 39.0233 28.1006C39.0038 28.0713 38.9305 27.9639 38.8671 27.8564C38.8036 27.749 38.7352 27.6514 38.7206 27.6367C38.6571 27.583 38.3348 27.168 38.3251 27.124C38.3007 27.0557 38.1688 26.9043 38.1298 26.9043C38.1151 26.9043 38.037 26.9971 37.9589 27.1094C37.8807 27.2217 37.7294 27.3926 37.6268 27.4902C37.5194 27.583 37.3534 27.7392 37.2606 27.832C37.163 27.9297 36.9335 28.1299 36.7431 28.2764C36.5575 28.4277 36.372 28.584 36.3329 28.6279C36.2987 28.6767 36.2401 28.7109 36.2059 28.7109C36.1766 28.7109 36.0204 28.8232 35.8641 28.9599C35.7079 29.0918 35.5321 29.2383 35.4686 29.2822C35.4052 29.3213 35.3514 29.375 35.3514 29.3945C35.3514 29.4189 35.4589 29.541 35.5907 29.6631C35.7274 29.79 35.869 29.9658 35.913 30.0586C35.952 30.1465 36.0399 30.2832 36.0985 30.3564C36.2401 30.5322 36.4403 30.9131 36.5673 31.25C36.6503 31.4697 36.6698 31.6308 36.6698 32.1387C36.6698 32.4805 36.6503 32.7685 36.6259 32.7881C36.6014 32.8027 36.5624 32.8857 36.5477 32.9736C36.4403 33.457 35.8837 34.082 35.3563 34.3066C34.702 34.5849 33.4813 34.5898 32.3485 34.3262C31.5526 34.1406 31.0936 34.0137 30.8104 33.9111C30.3466 33.7402 30.1268 33.6572 29.7216 33.4765C29.619 33.4326 29.5116 33.3984 29.4823 33.3984C29.4042 33.3984 29.0184 33.1738 27.9491 32.5C27.202 32.0312 26.4403 31.4648 25.7811 30.8887C25.3222 30.4883 25.1952 30.3662 25.1952 30.3223C25.1952 30.2441 25.4735 30.2246 26.8798 30.2197C27.6854 30.2197 28.5302 30.2002 28.7597 30.1758C29.7264 30.0732 30.1757 30 30.7616 29.834C30.8544 29.8047 31.1181 29.7314 31.3475 29.668C31.577 29.6045 31.9042 29.5019 32.08 29.4433C32.6952 29.2383 34.2186 28.5254 34.4237 28.3447C34.4628 28.3105 34.5751 28.2471 34.6679 28.1982C34.9071 28.0762 35.2977 27.8174 35.8251 27.4316C36.3378 27.0557 37.8417 25.6103 38.2665 25.083C38.4227 24.8877 38.5839 24.6924 38.6327 24.6435C38.9354 24.3066 39.6825 23.0127 39.868 22.5098C39.912 22.3877 39.9901 22.1924 40.0389 22.0703C40.0878 21.9482 40.1659 21.709 40.2098 21.5332C40.2538 21.3574 40.3124 21.1377 40.3368 21.0449C40.4345 20.6787 40.4979 19.4385 40.4393 18.8769C40.41 18.5742 40.3661 18.2764 40.3417 18.208C40.3173 18.1445 40.2587 17.959 40.2098 17.7978C40.1659 17.6367 40.0829 17.4267 40.0341 17.3291C39.9804 17.2314 39.9413 17.1142 39.9413 17.0752C39.9413 17.0361 39.9266 16.9922 39.9071 16.9824C39.8827 16.9726 39.8241 16.8799 39.7753 16.7724C39.3944 15.9814 38.496 15.0293 37.6513 14.5215C37.2411 14.2676 36.7772 14.0283 36.5966 13.9697C36.5184 13.9404 36.3182 13.8721 36.1571 13.8135C35.5175 13.584 34.6825 13.4814 33.4179 13.4814C32.5145 13.4766 32.4852 13.4863 32.5634 13.7988C32.5927 13.9062 32.6366 14.0967 32.6659 14.2334C32.6952 14.3652 32.7391 14.541 32.7636 14.624C32.788 14.7021 32.8319 14.917 32.8563 15.0976C32.8807 15.2783 32.9149 15.4492 32.9296 15.4736C32.9442 15.498 32.9833 15.791 33.0126 16.123C33.0468 16.4502 33.0809 16.8457 33.1005 16.9922L33.1298 17.2558L33.7401 17.2607C34.5165 17.2705 34.9559 17.373 35.4345 17.6611C36.0546 18.0371 36.3817 18.5205 36.577 19.3408C36.6845 19.79 36.6845 19.7998 36.6014 20.2392C36.3915 21.3183 35.8348 22.2363 34.7557 23.2666C34.0184 23.9697 33.6229 24.2773 32.91 24.7021C32.6268 24.8682 32.3632 25.0244 32.3241 25.0488C32.2216 25.1123 31.5087 25.459 31.2743 25.5566C31.1669 25.6006 31.0399 25.6592 30.996 25.6836C30.9472 25.7129 30.8788 25.7324 30.8397 25.7324C30.8007 25.7324 30.7079 25.7568 30.6298 25.791C30.4491 25.8642 29.5995 26.0693 29.1161 26.1572C28.8427 26.2012 28.8573 25.9863 29.1405 25.6885C29.3114 25.5127 29.5311 25.2148 29.6581 24.9756C29.7313 24.8389 29.8339 24.6875 29.8778 24.6338C29.9266 24.5801 29.9804 24.5019 29.9999 24.4629C30.0194 24.4238 30.0585 24.3457 30.0927 24.292C30.2929 23.9599 30.5419 23.501 30.5516 23.4277C30.5565 23.3838 30.6054 23.2764 30.6591 23.1836C30.7079 23.0957 30.8446 22.7783 30.9569 22.4853C31.0692 22.1875 31.1913 21.8799 31.2255 21.8017C31.2597 21.7187 31.3036 21.6016 31.3182 21.5332C31.372 21.2744 31.4598 20.9668 31.5233 20.8105C31.5624 20.7226 31.5917 20.5908 31.5917 20.5224C31.5917 20.4541 31.621 20.2832 31.66 20.1465C31.8847 19.3457 31.9677 17.0849 31.8065 16.0498C31.6454 14.9658 31.3768 13.8183 31.1376 13.1494C31.0009 12.7783 30.5761 11.831 30.4931 11.7187C30.4638 11.6797 30.3905 11.5478 30.3222 11.4258C30.0243 10.8594 29.0575 9.76561 28.4374 9.2871C27.7684 8.76952 26.9921 8.38378 26.1229 8.13964C25.5761 7.98339 24.3309 7.8662 23.9745 7.93456ZM24.9755 22.3828C25.9227 22.5488 26.6796 22.9932 27.2557 23.7305C27.661 24.248 27.9198 24.8096 28.0272 25.3906C28.0565 25.5664 28.0907 25.7519 28.1005 25.8057C28.1298 25.9521 27.9833 26.9482 27.8905 27.1973C27.5536 28.1348 26.8895 28.8379 25.8788 29.331C25.2977 29.6094 25.3075 29.6094 24.5116 29.6045C23.8622 29.6045 23.7059 29.5898 23.4423 29.4971C22.8661 29.2969 22.3388 28.9844 21.9335 28.5937C21.704 28.3789 21.289 27.7832 21.289 27.6758C21.289 27.6367 21.2597 27.5683 21.2206 27.5146C21.1522 27.4072 21.0448 27.0654 20.9179 26.543C20.6688 25.4932 21.1913 23.9844 22.0604 23.2568C22.6757 22.7344 23.3153 22.4365 23.955 22.3682C24.5116 22.3096 24.5458 22.3096 24.9755 22.3828Z" fill="#EEF2FF"/>
<path d="M24.2285 23.7842C23.8672 23.8232 23.6328 23.8965 23.2471 24.0869C23.042 24.1894 22.583 24.7412 22.417 25.083C22.2559 25.4053 22.251 25.4345 22.251 26.001C22.2559 26.5283 22.2656 26.6162 22.3828 26.875C22.5879 27.3242 22.7686 27.5439 23.1689 27.8271C23.6035 28.1347 24.4092 28.291 24.9756 28.1738C25.5908 28.0517 26.2451 27.5488 26.5625 26.9531C26.7285 26.6455 26.7334 26.6211 26.7334 26.0742C26.7334 25.4101 26.6846 25.2636 26.2793 24.7168C26.0303 24.3799 25.5322 23.9746 25.3711 23.9746C25.3418 23.9746 25.293 23.9551 25.2686 23.9355C25.2246 23.8965 24.9023 23.7988 24.707 23.7597C24.668 23.75 24.4531 23.7646 24.2285 23.7842Z" fill="#EEF2FF"/>
</svg>
